<svg width="102" height="75" viewBox="0 0 102 75" fill="none" xmlns="http://www.w3.org/2000/svg">
<path opacity="0.08" d="M64.9976 54.1901L64.9976 51.7627H62.5702V54.1901H64.9976ZM69.9668 54.1901L69.9668 56.6175L69.9668 54.1901ZM72.4743 48.9072L70.5936 50.442L72.4743 48.9072ZM57.4781 30.5321L55.5974 32.0669L57.4781 30.5321ZM52.4781 30.5139L50.6087 28.9655V28.9655L52.4781 30.5139ZM37.2578 48.889L39.1272 50.4375L37.2578 48.889ZM44.9806 54.1901H47.408V51.7627H44.9806V54.1901ZM29.8812 63.9296L32.3031 63.7656L31.975 58.9219L29.5532 59.0859L29.8812 63.9296ZM15.6366 22.6588L16.7419 24.8199L18.064 24.1437V22.6588H15.6366ZM44.3069 9.08706L42.8932 11.0603L45.0135 12.5794L46.3765 10.3555L44.3069 9.08706ZM88.9238 21.132L86.5838 20.4865L85.859 23.1139L88.5525 23.5308L88.9238 21.132ZM48.2171 78.8865V81.3139H61.7611V78.8865V76.4591H48.2171V78.8865ZM64.9976 75.6499H67.425V54.1901H64.9976H62.5702V75.6499H64.9976ZM64.9976 54.1901L64.9976 56.6175L69.9668 56.6175L69.9668 54.1901V51.7627L64.9976 51.7627L64.9976 54.1901ZM72.4743 48.9072L74.3549 47.3724L59.3587 28.9973L57.4781 30.5321L55.5974 32.0669L70.5936 50.442L72.4743 48.9072ZM52.4781 30.5139L50.6087 28.9655L35.3884 47.3406L37.2578 48.889L39.1272 50.4375L54.3474 32.0624L52.4781 30.5139ZM39.7503 54.1901V56.6175H44.9806V54.1901V51.7627H39.7503V54.1901ZM44.9806 54.1901H42.5532V75.6499H44.9806H47.408V54.1901H44.9806ZM57.4781 30.5321L59.3587 28.9973C57.1029 26.2334 52.8844 26.218 50.6087 28.9655L52.4781 30.5139L54.3474 32.0624C54.6726 31.6699 55.2752 31.6721 55.5974 32.0669L57.4781 30.5321ZM69.9668 54.1901L69.9668 56.6175C74.7417 56.6175 77.374 51.0718 74.3549 47.3724L72.4743 48.9072L70.5936 50.442C71.0249 50.9705 70.6489 51.7627 69.9668 51.7627V54.1901ZM61.7611 78.8865V81.3139C64.8892 81.3139 67.425 78.778 67.425 75.6499H64.9976H62.5702C62.5702 76.0968 62.208 76.4591 61.7611 76.4591V78.8865ZM37.2578 48.889L35.3884 47.3406C32.3302 51.0327 34.9561 56.6175 39.7503 56.6175V54.1901V51.7627C39.0655 51.7627 38.6903 50.9649 39.1272 50.4375L37.2578 48.889ZM48.2171 78.8865V76.4591C47.7703 76.4591 47.408 76.0968 47.408 75.6499H44.9806H42.5532C42.5532 78.778 45.089 81.3139 48.2171 81.3139V78.8865ZM29.7172 61.5078L29.5532 59.0859C17.2901 59.9164 9.29386 53.5987 6.70291 46.2145C4.13537 38.8969 6.66065 29.976 16.7419 24.8199L15.6366 22.6588L14.5313 20.4976C2.38877 26.7079 -1.2864 38.1081 2.12191 47.8218C5.50682 57.4688 15.6628 64.8925 29.8812 63.9296L29.7172 61.5078ZM15.6366 22.6588H18.064C18.064 17.6445 21.6106 12.9289 26.7917 10.3479C31.9314 7.78758 38.1044 7.62958 42.8932 11.0603L44.3069 9.08706L45.7205 7.11379C39.143 2.40148 30.9809 2.83723 24.627 6.00246C18.3145 9.14705 13.2092 15.2889 13.2092 22.6588H15.6366ZM44.3069 9.08706L46.3765 10.3555C50.1253 4.23895 54.8063 0.881351 59.551 -0.570436C64.3266 -2.03168 69.3453 -1.61582 73.8109 0.129939C82.9526 3.70371 88.846 12.2858 86.5838 20.4865L88.9238 21.132L91.2638 21.7775C94.4302 10.2991 86.0734 -0.288888 75.5786 -4.39164C70.2259 -6.48414 64.0798 -7.03315 58.1305 -5.21278C52.1504 -3.38296 46.5466 0.787526 42.2372 7.81859L44.3069 9.08706ZM88.9238 21.132L88.5525 23.5308C98.9114 25.1343 104.703 34.3736 103.809 43.0517C103.368 47.3345 101.292 51.461 97.272 54.4577C93.2354 57.4666 87.0433 59.4755 78.1739 59.0828L78.0665 61.5078L77.9591 63.9328C87.6433 64.3616 95.0231 62.1892 100.173 58.3501C105.34 54.4988 108.066 49.1108 108.639 43.549C109.773 32.538 102.439 20.7678 89.2951 18.7332L88.9238 21.132Z" fill="#8C9197"/>
</svg>
