<svg width="102" height="75" viewBox="0 0 102 75" fill="none" xmlns="http://www.w3.org/2000/svg">
<path opacity="0.08" d="M64.9976 53.1085H62.5702V55.5359L64.9976 55.5359L64.9976 53.1085ZM69.9668 53.1085L69.9668 50.6811L69.9668 53.1085ZM72.4743 58.3914L70.5936 56.8566L72.4743 58.3914ZM57.4781 76.7665L55.5974 75.2317L57.4781 76.7665ZM52.4781 76.7847L50.6087 78.3331V78.3332L52.4781 76.7847ZM37.2578 58.4096L39.1272 56.8612L37.2578 58.4096ZM44.9806 53.1085V55.5359H47.408V53.1085H44.9806ZM29.8812 64.8594L32.3031 64.6954L31.975 59.8517L29.5532 60.0157L29.8812 64.8594ZM15.6366 23.5886L16.7419 25.7497L18.064 25.0735V23.5886H15.6366ZM44.3069 10.0168L42.8932 11.9901L45.0135 13.5091L46.3765 11.2853L44.3069 10.0168ZM88.9238 22.0618L86.5838 21.4163L85.859 24.0437L88.5525 24.4606L88.9238 22.0618ZM48.2171 28.4122V30.8396H61.7611V28.4122V25.9848H48.2171V28.4122ZM64.9976 31.6487H62.5702V53.1085H64.9976H67.425V31.6487H64.9976ZM64.9976 53.1085L64.9976 55.5359L69.9668 55.5359V53.1085L69.9668 50.6811L64.9976 50.6811L64.9976 53.1085ZM72.4743 58.3914L70.5936 56.8566L55.5974 75.2317L57.4781 76.7665L59.3587 78.3013L74.3549 59.9262L72.4743 58.3914ZM52.4781 76.7847L54.3474 75.2363L39.1272 56.8612L37.2578 58.4096L35.3884 59.9581L50.6087 78.3331L52.4781 76.7847ZM39.7503 53.1085V55.5359H44.9806V53.1085V50.6811H39.7503V53.1085ZM44.9806 53.1085H47.408V31.6487H44.9806H42.5532V53.1085H44.9806ZM57.4781 76.7665L55.5974 75.2317C55.2752 75.6266 54.6726 75.6288 54.3474 75.2363L52.4781 76.7847L50.6087 78.3332C52.8844 81.0806 57.1029 81.0653 59.3587 78.3013L57.4781 76.7665ZM69.9668 53.1085V55.5359C70.6489 55.5359 71.0249 56.3282 70.5936 56.8566L72.4743 58.3914L74.3549 59.9262C77.374 56.2269 74.7417 50.6811 69.9668 50.6811L69.9668 53.1085ZM61.7611 28.4122V30.8396C62.208 30.8396 62.5702 31.2018 62.5702 31.6487H64.9976H67.425C67.425 28.5206 64.8892 25.9848 61.7611 25.9848V28.4122ZM37.2578 58.4096L39.1272 56.8612C38.6903 56.3337 39.0655 55.5359 39.7503 55.5359V53.1085V50.6811C34.9561 50.6811 32.3302 56.2659 35.3884 59.9581L37.2578 58.4096ZM48.2171 28.4122V25.9848C45.089 25.9848 42.5532 28.5206 42.5532 31.6487H44.9806H47.408C47.408 31.2018 47.7703 30.8396 48.2171 30.8396V28.4122ZM29.7172 62.4376L29.5532 60.0157C17.2901 60.8462 9.29386 54.5285 6.70291 47.1443C4.13537 39.8267 6.66065 30.9058 16.7419 25.7497L15.6366 23.5886L14.5313 21.4274C2.38877 27.6377 -1.2864 39.0379 2.12191 48.7516C5.50682 58.3986 15.6628 65.8223 29.8812 64.8594L29.7172 62.4376ZM15.6366 23.5886H18.064C18.064 18.5743 21.6106 13.8587 26.7917 11.2777C31.9314 8.71737 38.1044 8.55937 42.8932 11.9901L44.3069 10.0168L45.7205 8.04358C39.143 3.33127 30.9809 3.76702 24.627 6.93224C18.3145 10.0768 13.2092 16.2187 13.2092 23.5886H15.6366ZM44.3069 10.0168L46.3765 11.2853C50.1253 5.16874 54.8063 1.81114 59.551 0.359349C64.3266 -1.10189 69.3453 -0.686034 73.8109 1.05972C82.9526 4.6335 88.846 13.2156 86.5838 21.4163L88.9238 22.0618L91.2638 22.7073C94.4302 11.2289 86.0734 0.640898 75.5786 -3.46185C70.2259 -5.55436 64.0798 -6.10336 58.1305 -4.283C52.1504 -2.45317 46.5466 1.71731 42.2372 8.74838L44.3069 10.0168ZM88.9238 22.0618L88.5525 24.4606C98.9114 26.0641 104.703 35.3034 103.809 43.9815C103.368 48.2643 101.292 52.3908 97.272 55.3875C93.2354 58.3964 87.0433 60.4053 78.1739 60.0126L78.0665 62.4376L77.9591 64.8626C87.6433 65.2914 95.0231 63.119 100.173 59.2799C105.34 55.4286 108.066 50.0406 108.639 44.4788C109.773 33.4678 102.439 21.6976 89.2951 19.6629L88.9238 22.0618Z" fill="#8C9197"/>
</svg>
