<svg width="58" height="47" viewBox="0 0 58 47" fill="none" xmlns="http://www.w3.org/2000/svg">
<path d="M34.5732 31.8532H33.2742V33.1522L34.5732 33.1522L34.5732 31.8532ZM37.2325 31.8532V30.5541V31.8532ZM38.5745 34.6804L37.568 33.859L38.5745 34.6804ZM30.549 44.5142L29.5425 43.6928L30.549 44.5142ZM27.8731 44.5239L26.8727 45.3526L27.8731 44.5239ZM19.7278 34.6902L20.7282 33.8615L19.7278 34.6902ZM23.8608 31.8532V33.1522H25.1598V31.8532H23.8608ZM15.78 38.1419L17.0761 38.0541L16.9006 35.4619L15.6045 35.5497L15.78 38.1419ZM8.15678 16.0551L8.74831 17.2116L9.45585 16.8498V16.0551H8.15678ZM23.5002 8.7919L22.7436 9.84793L23.8783 10.6609L24.6078 9.47075L23.5002 8.7919ZM47.3777 15.238L46.1254 14.8925L45.7375 16.2986L47.179 16.5217L47.3777 15.238ZM25.5928 18.6365V19.9356H32.8411V18.6365V17.3374H25.5928V18.6365ZM34.5732 20.3686H33.2742V31.8532H34.5732H35.8723V20.3686H34.5732ZM34.5732 31.8532L34.5732 33.1522L37.2325 33.1522L37.2325 31.8532V30.5541L34.5732 30.5541L34.5732 31.8532ZM38.5745 34.6804L37.568 33.859L29.5425 43.6928L30.549 44.5142L31.5554 45.3355L39.5809 35.5018L38.5745 34.6804ZM27.8731 44.5239L28.8736 43.6952L20.7282 33.8615L19.7278 34.6902L18.7273 35.5188L26.8727 45.3526L27.8731 44.5239ZM21.0617 31.8532V33.1522H23.8608V31.8532V30.5541H21.0617V31.8532ZM23.8608 31.8532H25.1598V20.3686H23.8608H22.5617V31.8532H23.8608ZM30.549 44.5142L29.5425 43.6928C29.3701 43.9041 29.0476 43.9053 28.8736 43.6952L27.8731 44.5239L26.8727 45.3526C28.0906 46.8229 30.3482 46.8147 31.5554 45.3355L30.549 44.5142ZM37.2325 31.8532L37.2325 33.1522C37.5976 33.1522 37.7988 33.5762 37.568 33.859L38.5745 34.6804L39.5809 35.5018C41.1966 33.522 39.788 30.5541 37.2325 30.5541V31.8532ZM32.8411 18.6365V19.9356C33.0803 19.9356 33.2742 20.1294 33.2742 20.3686H34.5732H35.8723C35.8723 18.6945 34.5152 17.3374 32.8411 17.3374V18.6365ZM19.7278 34.6902L20.7282 33.8615C20.4944 33.5792 20.6952 33.1522 21.0617 33.1522V31.8532V30.5541C18.496 30.5541 17.0907 33.5429 18.7273 35.5188L19.7278 34.6902ZM25.5928 18.6365V17.3374C23.9188 17.3374 22.5617 18.6945 22.5617 20.3686H23.8608H25.1598C25.1598 20.1294 25.3537 19.9356 25.5928 19.9356V18.6365ZM15.6923 36.8458L15.6045 35.5497C9.04169 35.9941 4.76236 32.6131 3.37577 28.6613C2.0017 24.7452 3.35315 19.971 8.74831 17.2116L8.15678 16.0551L7.56525 14.8985C1.06698 18.222 -0.899853 24.323 0.924166 29.5215C2.73566 34.6843 8.17079 38.6572 15.78 38.1419L15.6923 36.8458ZM8.15678 16.0551H9.45585C9.45585 13.3716 11.3539 10.8479 14.1266 9.46668C16.8772 8.09647 20.1809 8.01191 22.7436 9.84793L23.5002 8.7919L24.2567 7.73588C20.7366 5.214 16.3686 5.4472 12.9682 7.14112C9.58992 8.82401 6.85771 12.1109 6.85771 16.0551H8.15678ZM23.5002 8.7919L24.6078 9.47075C26.614 6.19735 29.1192 4.40047 31.6584 3.62352C34.2141 2.84151 36.8999 3.06407 39.2898 3.99834C44.1822 5.91091 47.3361 10.5038 46.1254 14.8925L47.3777 15.238L48.63 15.5834C50.3246 9.44054 45.8523 3.7742 40.2358 1.57854C37.3712 0.458701 34.082 0.164891 30.8982 1.13909C27.6978 2.11835 24.6988 4.35026 22.3926 8.11306L23.5002 8.7919ZM47.3777 15.238L47.179 16.5217C52.7228 17.3799 55.8223 22.3244 55.344 26.9687C55.108 29.2607 53.9969 31.4691 51.8454 33.0728C49.6852 34.683 46.3714 35.7582 41.6247 35.548L41.5672 36.8458L41.5098 38.1436C46.6925 38.3731 50.6419 37.2104 53.3982 35.1559C56.1632 33.0948 57.622 30.2113 57.9285 27.2348C58.5353 21.3421 54.6108 15.043 47.5764 13.9542L47.3777 15.238Z" fill="#8C9197"/>
</svg>
