<svg width="58" height="47" viewBox="0 0 58 47" fill="none" xmlns="http://www.w3.org/2000/svg">
<path d="M34.5732 32.432V31.133L33.2742 31.133V32.432H34.5732ZM37.2325 32.432V33.7311V32.432ZM38.5745 29.6048L37.568 30.4261L38.5745 29.6048ZM30.549 19.771L29.5425 20.5924L30.549 19.771ZM27.8731 19.7613L26.8727 18.9326V18.9326L27.8731 19.7613ZM19.7278 29.595L20.7282 30.4237L19.7278 29.595ZM23.8608 32.432H25.1598V31.133H23.8608V32.432ZM15.78 37.6443L17.0761 37.5565L16.9006 34.9643L15.6045 35.0521L15.78 37.6443ZM8.15678 15.5575L8.74831 16.714L9.45585 16.3522V15.5575H8.15678ZM23.5002 8.29431L22.7436 9.35034L23.8783 10.1633L24.6078 8.97315L23.5002 8.29431ZM47.3777 14.7404L46.1254 14.3949L45.7375 15.801L47.179 16.0241L47.3777 14.7404ZM25.5928 45.6487V46.9478H32.8411V45.6487V44.3496H25.5928V45.6487ZM34.5732 43.9166H35.8723V32.432H34.5732H33.2742V43.9166H34.5732ZM34.5732 32.432V33.7311L37.2325 33.7311V32.432V31.133L34.5732 31.133V32.432ZM38.5745 29.6048L39.5809 28.7834L31.5554 18.9496L30.549 19.771L29.5425 20.5924L37.568 30.4261L38.5745 29.6048ZM27.8731 19.7613L26.8727 18.9326L18.7273 28.7664L19.7278 29.595L20.7282 30.4237L28.8736 20.59L27.8731 19.7613ZM21.0617 32.432V33.7311H23.8608V32.432V31.133H21.0617V32.432ZM23.8608 32.432H22.5617V43.9166H23.8608H25.1598V32.432H23.8608ZM30.549 19.771L31.5554 18.9496C30.3482 17.4705 28.0906 17.4622 26.8727 18.9326L27.8731 19.7613L28.8736 20.59C29.0476 20.3799 29.3701 20.3811 29.5425 20.5924L30.549 19.771ZM37.2325 32.432V33.7311C39.788 33.7311 41.1966 30.7632 39.5809 28.7834L38.5745 29.6048L37.568 30.4261C37.7988 30.709 37.5976 31.133 37.2325 31.133V32.432ZM32.8411 45.6487V46.9478C34.5152 46.9478 35.8723 45.5907 35.8723 43.9166H34.5732H33.2742C33.2742 44.1558 33.0803 44.3496 32.8411 44.3496V45.6487ZM19.7278 29.595L18.7273 28.7664C17.0907 30.7423 18.496 33.7311 21.0617 33.7311V32.432V31.133C20.6952 31.133 20.4944 30.706 20.7282 30.4237L19.7278 29.595ZM25.5928 45.6487V44.3496C25.3537 44.3496 25.1598 44.1558 25.1598 43.9166H23.8608H22.5617C22.5617 45.5907 23.9188 46.9478 25.5928 46.9478V45.6487ZM15.6923 36.3482L15.6045 35.0521C9.04169 35.4965 4.76236 32.1155 3.37577 28.1637C2.0017 24.2476 3.35315 19.4734 8.74831 16.714L8.15678 15.5575L7.56525 14.4009C1.06698 17.7244 -0.899853 23.8254 0.924166 29.0239C2.73566 34.1867 8.17079 38.1596 15.78 37.6443L15.6923 36.3482ZM8.15678 15.5575H9.45585C9.45585 12.874 11.3539 10.3503 14.1266 8.96909C16.8772 7.59887 20.1809 7.51432 22.7436 9.35034L23.5002 8.29431L24.2567 7.23828C20.7366 4.71641 16.3686 4.94961 12.9682 6.64353C9.58993 8.32641 6.85771 11.6133 6.85771 15.5575H8.15678ZM23.5002 8.29431L24.6078 8.97315C26.614 5.69976 29.1192 3.90288 31.6584 3.12593C34.2141 2.34392 36.8999 2.56648 39.2898 3.50075C44.1822 5.41332 47.3361 10.0062 46.1254 14.3949L47.3777 14.7404L48.63 15.0858C50.3246 8.94295 45.8523 3.27661 40.2358 1.08095C37.3712 -0.0388919 34.082 -0.332702 30.8982 0.641499C27.6978 1.62076 24.6988 3.85267 22.3926 7.61547L23.5002 8.29431ZM47.3777 14.7404L47.179 16.0241C52.7228 16.8823 55.8223 21.8268 55.344 26.4711C55.108 28.7631 53.9969 30.9715 51.8454 32.5752C49.6852 34.1855 46.3714 35.2606 41.6247 35.0504L41.5673 36.3482L41.5098 37.646C46.6925 37.8755 50.6419 36.7129 53.3982 34.6583C56.1632 32.5972 57.622 29.7137 57.9285 26.7372C58.5353 20.8445 54.6108 14.5455 47.5765 13.4566L47.3777 14.7404Z" fill="#8C9197"/>
</svg>
